<svg width="55" height="53" viewBox="0 0 55 53" fill="none" xmlns="http://www.w3.org/2000/svg">
<path d="M26.6214 0.984669C24.7279 3.03652 22.3084 8.11352 21.2302 12.3751C20.7568 14.2954 20.4412 22.3712 20.862 22.3712H27.8048L34.4321 22.3975L34.4058 18.2412C34.3795 13.9008 34.1691 12.6381 32.8542 8.9027C31.5129 5.14098 28.5675 0.274414 27.647 0.274414C27.4629 0.274414 26.9896 0.590083 26.6214 0.984669ZM0.717172 13.0064C0.874964 15.4791 1.50613 17.9256 2.68957 20.6614C3.05776 21.5295 3.39964 22.266 3.42594 22.3186C3.50483 22.4502 19.3104 22.5291 19.3104 22.3975C19.3104 22.1082 17.7061 20.1879 15.9178 18.3465C12.3149 14.611 6.45029 11.428 2.1373 10.823L0.55938 10.6126L0.717172 13.0064ZM52.9201 10.7967C49.2646 11.428 43.9259 14.0849 40.6912 16.9259C39.6392 17.8466 35.8785 22.0819 35.8785 22.3449C35.8785 22.4238 39.4026 22.4765 43.6892 22.4502L51.5263 22.3975L52.1311 21.319C53.3935 19.1356 54.3402 15.8211 54.4717 13.0853C54.5506 11.6648 54.5243 10.56 54.3928 10.56C54.2613 10.5863 53.6039 10.6915 52.9201 10.7967ZM4.84607 24.9755C4.84607 25.0807 5.08276 25.5016 5.39834 25.8962L5.95061 26.5802L27.647 26.5275L49.3435 26.4486L50.0272 25.5805L50.6847 24.7388H27.7522C15.05 24.7388 4.84607 24.844 4.84607 24.9755ZM8.42269 29.5264C8.68568 29.8684 9.10646 30.263 9.31685 30.4471C9.84282 30.868 44.7412 30.9469 45.6617 30.4997C46.0035 30.3419 46.4769 29.9473 46.7399 29.579L47.2133 28.9477H7.92302L8.42269 29.5264ZM13.5246 33.4723C15.0763 34.7875 21.6246 37.3655 23.4392 37.3655C23.7022 37.3655 23.7811 36.892 23.7811 35.5504C23.7811 32.6831 24.2282 32.8935 18.1532 32.8935L12.8672 32.9198L13.5246 33.4723ZM24.8857 33.9984C25.2013 34.6297 25.9376 35.6819 26.4899 36.3922C27.6996 37.839 27.6996 37.839 29.4091 35.4189C31.2763 32.762 31.3815 32.8935 27.5681 32.8935H24.2808L24.8857 33.9984ZM31.5655 33.709C31.4866 34.1562 31.4078 35.1821 31.4078 35.9713V37.4181L32.4071 37.2603C35.3263 36.7342 39.8496 34.8665 41.6642 33.4196L42.3217 32.8935H31.7496L31.5655 33.709ZM18.4951 40.4433C18.4951 40.5748 18.4951 41.4166 18.5214 42.3373L18.5477 44.0209L17.8113 43.8367C17.4168 43.7315 16.8646 43.6 16.6279 43.521C16.2334 43.4158 16.1545 43.5474 16.1545 44.4417C16.1545 45.3361 16.2597 45.5466 16.7594 45.6518C17.6009 45.8886 18.3899 47.0723 18.3899 48.2035C18.3899 49.2294 17.7324 50.1501 16.7594 50.5447C16.2597 50.7288 16.1545 50.9656 16.1545 51.8074V52.8596L17.2591 52.465C17.9954 52.2019 18.4162 52.1756 18.4688 52.3598C18.5214 52.4913 19.0211 52.6228 19.5996 52.6228H20.6253V40.2591H19.5733C18.9948 40.2591 18.5214 40.3381 18.4951 40.4433ZM32.7227 42.1269C32.7227 43.9419 32.6964 43.9946 32.1441 43.8367C30.2243 43.3106 30.3558 43.258 30.3558 44.4154C30.3558 45.2309 30.4873 45.5203 30.8292 45.6255C32.5123 46.1779 33.1435 48.5718 31.96 49.8344C31.6181 50.2027 31.1185 50.571 30.8292 50.6762C30.4873 50.7814 30.3558 51.0708 30.3558 51.86C30.3558 52.4124 30.4084 52.8859 30.4873 52.8859C30.5662 52.8859 31.0659 52.7018 31.6181 52.4913C32.2493 52.2283 32.6175 52.1756 32.6701 52.3598C32.7227 52.4913 33.2224 52.6228 33.8009 52.6228H34.8266V40.2591H32.7227V42.1269ZM2.79477 43.9683C1.29574 44.7048 0.270094 46.441 0.296393 48.1509C0.322691 50.1501 1.40094 51.6758 3.34704 52.4913L4.32009 52.8859V51.7021C4.32009 51.0445 4.1886 50.5184 4.05711 50.5184C3.89931 50.5184 3.47854 50.229 3.13665 49.8607C2.63698 49.3872 2.47918 48.94 2.47918 48.1246C2.47918 47.2039 2.63698 46.8882 3.39964 46.1516C4.1097 45.494 4.32009 45.0731 4.32009 44.3628C4.32009 43.8367 4.2412 43.4158 4.136 43.4158C4.00451 43.4158 3.42594 43.6789 2.79477 43.9683ZM5.37204 44.4417C5.37204 45.2572 5.47724 45.5203 5.79282 45.5203C6.00321 45.5203 6.55548 45.8623 6.97626 46.2831C8.3175 47.6511 7.79152 50.1764 6.05581 50.6236C5.52983 50.7551 5.45094 50.913 5.52983 51.6232C5.55613 52.0967 5.60873 52.5702 5.60873 52.6754C5.63503 52.7807 6.1347 52.6754 6.73957 52.465C7.47594 52.2019 7.89672 52.1756 7.94931 52.3598C8.00191 52.4913 8.44899 52.6228 8.94867 52.6228H9.84282V43.4158H8.92237C8.42269 43.4158 8.00191 43.5474 8.00191 43.7052C8.00191 43.8893 7.73892 43.9419 7.34444 43.8367C6.97626 43.7578 6.39769 43.6 6.02951 43.521C5.39834 43.3632 5.37204 43.4158 5.37204 44.4417ZM13.5246 43.9156C10.6055 45.4677 10.0269 49.282 12.4201 51.518C12.9198 51.9652 13.7087 52.465 14.1558 52.5702C14.9448 52.7807 14.9711 52.7544 15.05 51.86C15.1289 51.2023 14.9974 50.834 14.6555 50.5973C13.5772 49.8081 13.2617 49.4398 13.1039 48.8085C12.8672 47.8089 13.2091 46.8356 14.1295 45.9412C14.8133 45.2835 14.9448 44.9416 14.8922 44.2576C14.787 43.2843 14.7344 43.258 13.5246 43.9156ZM21.9139 47.6247C21.8876 49.9397 21.8613 51.9915 21.835 52.1493C21.8087 52.3598 22.2295 52.5176 22.9396 52.5702L24.0441 52.6491V43.4158H21.9402L21.9139 47.6247ZM27.7522 43.8893C27.2526 44.1261 26.4899 44.7837 26.0428 45.3361C25.3328 46.2305 25.2539 46.5199 25.2539 48.1246C25.2802 49.3083 25.4379 50.1238 25.7272 50.571C26.2269 51.3339 27.8048 52.465 28.7253 52.7544C29.2513 52.9122 29.3039 52.8333 29.3039 51.9126C29.3039 51.0971 29.1461 50.7814 28.3834 50.1764C27.2526 49.282 26.9633 48.0456 27.5944 46.8356C27.8311 46.3621 28.2519 45.9149 28.5412 45.8623C28.9357 45.757 29.0409 45.494 29.0409 44.5733C29.0409 43.9419 28.962 43.4158 28.8568 43.4158C28.7253 43.4158 28.2519 43.6263 27.7522 43.8893ZM37.9298 44.1787C36.1152 45.3361 35.3789 47.0986 35.8259 49.1505C36.2467 50.9393 37.4565 52.123 39.5078 52.7544C40.0337 52.9122 40.0863 52.8333 40.0863 51.86C40.0863 50.9393 39.9811 50.7288 39.2711 50.3868C38.3243 49.887 37.7194 48.5981 37.9035 47.5458C38.035 46.9145 39.3237 45.5203 39.797 45.5203C39.9022 45.5203 39.9811 45.0468 39.9811 44.4681C39.9811 43.1528 39.6129 43.1002 37.9298 44.1787ZM41.1383 44.4681C41.1383 45.3625 41.2435 45.5729 41.7957 45.7833C42.6636 46.099 43.2948 47.5721 43.0581 48.677C42.9792 49.1768 42.5584 49.7818 42.0324 50.2027C41.2961 50.7814 41.1383 51.0971 41.1383 51.9126V52.8859L42.1113 52.4913C42.7425 52.2283 43.137 52.1756 43.1896 52.3598C43.2422 52.4913 43.7418 52.6228 44.3204 52.6228H45.3461V43.4158H44.5834C44.1626 43.4158 43.6367 43.6 43.4263 43.8104C43.0581 44.1524 42.9266 44.1524 42.2691 43.8104C41.2172 43.258 41.1383 43.2843 41.1383 44.4681ZM48.3704 43.7841C46.661 44.5207 46.0824 46.8356 47.3185 47.993C48.0022 48.6244 49.5802 49.2031 50.6584 49.2031C51.5263 49.2031 52.2626 49.7818 52.1311 50.4132C52.0785 50.8077 51.7892 50.9393 50.6584 50.9919C49.4224 51.0708 49.2646 51.0182 48.9753 50.4132C48.7386 49.8344 48.5019 49.7292 47.5289 49.7292C46.2402 49.7292 46.1613 49.9397 46.924 51.176C47.5815 52.2546 48.7649 52.7544 50.6058 52.7544C53.1305 52.7544 54.6558 51.6495 54.6032 49.887C54.5506 48.2298 53.4724 47.3354 51.0266 46.9671C48.686 46.5988 48.1337 45.2835 50.2902 45.1783C51.1581 45.152 51.4737 45.2572 51.8155 45.7307C52.1048 46.1516 52.473 46.3095 53.262 46.3095C54.4454 46.3095 54.5243 46.0727 53.7353 44.9416C52.7097 43.5211 50.2113 42.9949 48.3704 43.7841Z" fill="black"/>
</svg>
