<svg width="97" height="16" viewBox="0 0 97 16" fill="none" xmlns="http://www.w3.org/2000/svg">
<path fill-rule="evenodd" clip-rule="evenodd" d="M93.2748 1.28323H96.6627C96.2874 1.57568 96.0623 1.93386 96.0623 2.4241V14.1409C96.0623 14.6306 96.297 14.9797 96.6627 15.2716H93.2748C93.6404 14.9797 93.8656 14.6215 93.8656 14.1409V2.42349C93.8662 1.93326 93.65 1.57508 93.2748 1.28323ZM14.7534 6.31645C14.1999 5.1195 13.5899 3.94124 12.5669 3.08378C11.4784 2.15999 10.0982 1.60402 8.67172 1.60402C4.88043 1.60402 3.18141 5.04412 3.18141 8.42815C3.18141 11.6994 4.80539 15.0075 8.4652 15.0075C9.9571 15.0075 11.4124 14.3574 12.3315 13.1786V10.5392C12.3315 9.82288 12.0968 9.36159 11.5433 8.93768H15.4192C15.0061 9.40862 14.7534 9.88921 14.7534 10.5392V13.1786C12.9793 14.838 10.7742 15.8553 8.32471 15.8553C3.9985 15.8553 0.459961 12.66 0.459961 8.21107C0.459961 3.79049 3.95107 0.764648 8.22145 0.764648C10.8775 0.764648 13.0261 1.74513 14.7534 3.71512V6.31645ZM24.2505 1.28323H27.9013C27.4036 1.65045 27.2349 2.06532 27.2349 2.67796V11.2279C27.2349 13.5741 29.975 14.7246 31.9838 14.7246C33.9548 14.7246 36.5261 13.5657 36.5261 11.2749V2.67796C36.5261 2.1027 36.3851 1.70713 36.0008 1.28323H37.9904C37.587 1.69809 37.4369 2.11235 37.4369 2.67796V11.2749C37.4369 14.3665 33.8053 15.5538 31.2898 15.5538C28.6998 15.5538 24.9175 14.4045 24.9175 11.2279V2.67796C24.9169 2.09366 24.6822 1.6601 24.2505 1.28323ZM60.8132 6.36348C60.3257 5.12855 59.753 4.04496 58.7486 3.14951C57.6697 2.18772 56.3555 1.58473 54.9014 1.58473C51.148 1.58473 49.2238 4.88373 49.2238 8.30574C49.2238 11.7458 51.223 14.9978 54.9297 14.9978C57.6889 14.9978 59.6599 13.0465 60.8138 10.699V13.2443C59.0974 14.9508 56.882 15.8179 54.4608 15.8179C49.9743 15.8179 46.6146 12.9054 46.6146 8.25871C46.6146 3.74406 49.8428 0.774903 54.2446 0.774903C56.6845 0.774903 59.0487 1.62332 60.8132 3.3105V6.36348ZM84.3504 6.36348C83.8629 5.12855 83.289 4.04496 82.2858 3.14951C81.2069 2.18772 79.8927 1.58473 78.4387 1.58473C74.684 1.58473 72.7694 4.88373 72.7694 8.30574C72.7694 11.7458 74.759 14.9978 78.4669 14.9978C81.2261 14.9978 83.2055 13.0465 84.351 10.699V13.2443C82.6334 14.9508 80.4277 15.8179 77.998 15.8179C73.5115 15.8179 70.1525 12.9054 70.1525 8.25871C70.1525 3.74406 73.3806 0.774903 77.7813 0.774903C80.2211 0.774903 82.5866 1.62332 84.351 3.3105L84.3504 6.36348Z" fill="black"/>
</svg>
