<svg width="66" height="44" viewBox="0 0 66 44" fill="none" xmlns="http://www.w3.org/2000/svg">
<path d="M26.4229 19.9149C26.9488 19.5066 27.5952 19.389 28.1799 19.154C28.7087 18.8602 28.885 18.2726 28.7087 17.6879C28.6499 17.4529 28.5324 17.2766 28.2974 17.2179C27.4189 16.9828 26.655 17.4529 25.7766 17.3354C25.6003 17.2766 25.424 17.1591 25.424 16.9828C25.5415 16.3394 25.7178 15.693 25.9529 15.0467C27.3014 11.7649 28.885 8.65652 30.2923 5.43354C30.5861 4.61383 31.1737 3.79119 30.8799 2.91273C30.6448 2.09009 29.5313 2.32513 28.8879 2.56017C28.1211 2.91273 27.4777 3.37987 26.7726 3.78826C26.3612 4.0233 25.8353 3.90578 25.424 4.14082C24.193 5.02222 23.7229 6.37076 23.1382 7.60178C22.4361 8.95032 21.966 10.2989 21.3784 11.6474C20.3824 13.9949 19.2101 16.2219 18.1554 18.5664L12.4557 19.8532C12.4557 19.8532 16.5101 10.3576 18.2112 5.48936C18.27 5.25432 18.2112 4.90176 18.0349 4.72842C17.3886 4.19958 16.5101 4.49338 15.8079 4.72842C14.5182 7.7193 13.2754 10.672 11.9386 13.7011C11.0601 15.693 10.546 16.6449 9.78503 18.6986C9.66751 18.9924 9.12398 20.6788 9.12398 20.6788C5.83342 21.8893 4.15876 22.33 1.55863 23.1409C1.38529 23.9018 0.973965 24.5482 0.856445 25.3121C1.49987 25.3708 2.26375 25.3121 2.78965 25.5471C3.20097 25.7234 2.96593 26.4256 3.25973 26.7781C3.90609 27.307 4.72579 27.4832 5.25463 28.1854C5.54843 28.538 5.60719 29.0051 5.60719 29.4752C5.54843 30.765 4.90501 31.9372 4.49369 33.227C3.96202 34.8998 3.39486 36.5612 2.79259 38.2099C2.61631 38.68 2.91011 39.2059 3.02763 39.6759C3.20391 39.9697 3.55647 40.1431 3.90609 39.911C4.19989 39.6759 4.37617 39.3234 4.55245 39.0325C5.14005 37.8603 5.54843 36.688 6.01851 35.5157C7.0145 32.8186 7.83714 30.1216 8.83312 27.4245C10.8251 27.0132 12.7612 26.4285 14.8149 26.4285C14.9324 26.4285 14.8736 26.7223 14.8736 26.8986C13.8777 31.003 12.4704 34.5814 11.5331 38.6271C11.4156 38.9796 11.2981 39.4468 11.4744 39.6231C12.5879 40.7366 13.5251 41.8501 14.4065 43.1986C14.4653 43.2574 14.5828 43.3161 14.7003 43.3161C15.1116 43.3749 15.5788 43.3749 15.9313 43.3749C16.4014 43.3161 16.4602 42.611 16.6364 42.2026C18.22 38.5096 19.1573 34.7548 20.3295 30.9442C20.7408 29.7132 21.1492 28.5409 21.5018 27.2511C21.7956 26.0789 22.0894 24.9654 22.5565 23.8519C22.7328 23.4993 23.0266 23.2643 23.3175 23.0292C24.3105 21.9069 25.189 20.7963 26.4229 19.9149ZM65.181 0.973651C64.4759 -0.0810915 62.9511 0.153949 62.0726 0.797371C59.7281 2.55723 59.258 5.37184 58.1445 7.83388C57.8507 8.42148 57.4982 8.94739 57.2661 9.47623C54.5102 15.223 52.339 20.9697 49.642 26.7164C49.0367 27.9239 48.6166 29.2078 48.1171 30.6445C48.0584 30.7033 47.9996 30.7033 47.9409 30.762C47.7646 30.4095 47.2357 30.1744 47.2945 29.7661C47.5883 24.7832 48.2905 19.9737 48.9368 14.9292C49.1131 13.7569 49.2894 12.7022 49.5244 11.5299C49.7595 10.1226 50.112 8.95032 50.4029 7.54302C50.6379 6.54704 50.6967 5.60982 50.7555 4.6109C50.7555 3.61491 50.8142 2.49847 50.4029 1.56125C50.1091 0.856131 49.5244 -0.0223315 48.5843 0.212709C48.2317 0.330229 47.9409 0.624029 47.5883 0.741549C46.5923 0.976589 45.2438 0.682789 44.7737 1.73753C41.1394 10.4164 38.3336 19.1834 35.7452 28.2412C35.3927 29.4723 34.9255 30.5858 34.7492 31.8755C34.5729 33.0478 34.2791 34.1026 34.0441 35.2778C33.8091 36.6263 33.2832 37.8573 33.1656 39.2059C33.0481 39.908 33.0481 40.5544 33.1039 41.2566C33.3243 41.9029 34.5847 41.1684 34.9813 40.6132C35.1576 39.3234 35.4514 38.0924 35.7452 36.7438C36.2741 33.988 37.0938 31.4672 37.9135 28.8288C39.1455 24.897 40.5542 21.0227 42.1354 17.2179C42.2529 16.8653 42.3116 16.3952 42.723 16.1044C42.723 18.6839 42.2529 21.2047 42.1941 23.7872C42.1354 27.7153 41.9591 31.5847 41.9591 35.5157C41.9591 35.9271 42.3704 36.1592 42.6642 36.453C43.8365 37.3902 44.9705 38.2304 45.6345 39.579C45.7638 39.8405 46.1839 39.3821 46.416 39.15C47.0036 38.5037 47.4708 37.7427 47.7646 36.9789C48.408 35.454 48.9956 33.988 49.642 32.4631C51.8102 27.4215 53.9814 22.4357 56.5022 17.5704C56.561 17.6292 56.6197 17.6879 56.6197 17.7467C55.8588 25.3708 54.3927 32.7011 53.9814 40.2635C53.9814 40.6749 54.4515 40.9687 54.6248 41.3183C55.0361 42.3143 55.5033 43.3132 56.4434 43.8391C57.1486 44.1917 58.0858 43.8979 58.3208 43.1927C58.4383 42.6639 58.4383 42.0792 58.4971 41.4916C58.6146 40.904 58.7909 40.3194 58.8497 39.7318C59.0847 38.2069 59.3785 36.7996 59.6694 35.2161C60.0807 32.754 60.4891 30.5241 60.9591 28.062C62.484 19.9708 64.0088 12.6992 65.4748 4.60796C65.7069 3.37987 65.942 2.03133 65.181 0.973651ZM31.2295 29.913C30.4216 29.6427 29.6547 30.6416 29.1788 31.1734C28.885 30.6445 28.6499 29.8248 29.0613 29.4135C29.8868 28.5879 30.21 27.9504 29.8251 26.7164C29.4726 25.4854 27.889 25.1916 26.7755 25.6029C25.9734 25.882 25.6561 26.975 25.7325 27.9621C25.7619 28.3676 25.8559 28.7554 26.0116 29.0639C26.1291 29.2989 26.2467 29.7073 26.4229 29.9423C25.6679 30.148 24.4515 31.6082 23.7112 33.1301C23.3322 33.9116 23.0795 34.7107 23.0795 35.3659C23.0795 36.5969 24.81 37.4166 25.8353 37.0934C26.5258 36.876 27.0076 36.3913 27.654 36.0387C28.2416 36.5058 28.6499 37.1522 29.3551 37.6223C29.4168 37.6223 29.5313 37.6223 29.5313 37.5635C29.7664 36.3913 29.2375 35.219 29.7664 34.2201C30.1777 33.5179 30.8211 33.0478 31.2912 32.3427C31.7818 31.6053 32.0551 30.1568 31.2295 29.913ZM27.2426 33.9292C27.1839 34.3993 26.7726 34.5756 26.3054 34.6902C26.0704 34.7489 25.8353 34.6314 25.6591 34.3964C25.5914 34.2858 25.5473 34.1624 25.5296 34.034C25.5119 33.9056 25.521 33.7749 25.5562 33.6501C25.6155 33.4354 25.7098 33.2319 25.8353 33.0478C26.0116 32.754 26.4288 32.5572 26.7726 32.6953C27.3602 32.9332 27.3602 33.4621 27.2426 33.9292ZM28.0623 28.4763C27.7744 28.4028 27.5923 28.1002 27.4836 27.7888C27.4237 27.6124 27.3824 27.4302 27.3602 27.2453C27.3249 26.9485 27.5952 26.6929 27.889 26.7164C28.2269 26.7458 28.7087 26.9515 28.6499 27.4215C28.5912 27.8329 28.5324 28.535 28.0623 28.4763Z" fill="black"/>
</svg>
